<svg xmlns="http://www.w3.org/2000/svg" viewBox="0 0 1200 280" width="1200" height="280">
  <defs>
    <linearGradient id="bg" x1="0%" y1="0%" x2="100%" y2="100%">
      <stop offset="0%" stop-color="#0a0a0a"/>
      <stop offset="55%" stop-color="#1a1410"/>
      <stop offset="100%" stop-color="#4a2e1a"/>
    </linearGradient>
    <linearGradient id="accent" x1="0%" y1="0%" x2="100%" y2="0%">
      <stop offset="0%" stop-color="#f5c563"/>
      <stop offset="100%" stop-color="#e8a13a"/>
    </linearGradient>
    <radialGradient id="glow" cx="85%" cy="22%" r="55%">
      <stop offset="0%" stop-color="#e8a13a" stop-opacity="0.32"/>
      <stop offset="100%" stop-color="#e8a13a" stop-opacity="0"/>
    </radialGradient>
  </defs>

  <rect width="1200" height="280" fill="url(#bg)"/>
  <rect width="1200" height="280" fill="url(#glow)"/>

  <g opacity="0.14" fill="#ffffff">
    <circle cx="110" cy="55" r="3"/>
    <circle cx="150" cy="80" r="3"/>
    <circle cx="90" cy="200" r="3"/>
    <circle cx="1000" cy="55" r="3"/>
  </g>

  <text x="60" y="118" font-family="Segoe UI, Arial, sans-serif" font-size="58" font-weight="800" fill="#ffffff">
    Plataforma Style
  </text>
  <text x="60" y="160" font-family="Segoe UI, Arial, sans-serif" font-size="24" font-weight="600" fill="url(#accent)">
    O sistema completo pro seu salão, barbearia ou clínica
  </text>
  <text x="60" y="200" font-family="Segoe UI, Arial, sans-serif" font-size="17" fill="#c9beb2">
    SaaS multi-tenant · Site + agendamento por salão · Painel Mestre · Notificações via WhatsApp
  </text>

  <g transform="translate(60,222)">
    <rect width="110" height="30" rx="15" fill="rgba(255,255,255,0.09)"/>
    <text x="55" y="20" font-family="Segoe UI, Arial, sans-serif" font-size="13" font-weight="700" fill="#ffffff" text-anchor="middle">START</text>
  </g>
  <g transform="translate(184,222)">
    <rect width="100" height="30" rx="15" fill="rgba(255,255,255,0.09)"/>
    <text x="50" y="20" font-family="Segoe UI, Arial, sans-serif" font-size="13" font-weight="700" fill="#ffffff" text-anchor="middle">PRO</text>
  </g>
  <g transform="translate(298,222)">
    <rect width="130" height="30" rx="15" fill="rgba(255,255,255,0.09)"/>
    <text x="65" y="20" font-family="Segoe UI, Arial, sans-serif" font-size="13" font-weight="700" fill="#ffffff" text-anchor="middle">PREMIUM</text>
  </g>

  <g transform="translate(1000,90)">
    <circle cx="0" cy="0" r="68" fill="none" stroke="url(#accent)" stroke-width="4" opacity="0.55"/>
    <circle cx="0" cy="0" r="50" fill="#1a1410"/>
    <path d="M -20 -18 L -6 4 L -20 18 M 20 -18 L 24 -22 M 20 18 L 24 22 M -6 4 L 20 -18 M -6 4 L 20 18" fill="none" stroke="#f5c563" stroke-width="3.5" stroke-linecap="round" stroke-linejoin="round"/>
  </g>
</svg>
